<svg xmlns="http://www.w3.org/2000/svg" viewBox="0 0 600 400" width="600" height="400">
        <defs>
            <linearGradient id="bg" x1="0%" y1="0%" x2="100%" y2="100%">
                <stop offset="0%" stop-color="#0C4A6E" />
                <stop offset="100%" stop-color="#082F49" />
            </linearGradient>
        </defs>
        <rect width="600" height="400" fill="url(#bg)" />
        
        <!-- Floor grid perspective -->
        <line x1="0" y1="360" x2="600" y2="360" stroke="#334155" stroke-width="2" />
        <line x1="100" y1="360" x2="0" y2="400" stroke="#334155" stroke-width="1.5" />
        <line x1="300" y1="360" x2="300" y2="400" stroke="#334155" stroke-width="1.5" />
        <line x1="500" y1="360" x2="600" y2="400" stroke="#334155" stroke-width="1.5" />

        
        <rect x="30" y="30" width="180" height="34" rx="8" fill="#0284C7" opacity="0.9" />
        <text x="45" y="52" fill="#FFFFFF" font-family="Arial, sans-serif" font-weight="bold" font-size="13">
            [ALERT] ACTIVE LEAK
        </text>
        
        
        <!-- Plumbing Leak -->
        <rect x="250" y="70" width="100" height="25" rx="4" fill="#94A3B8" />
        <line x1="300" y1="95" x2="300" y2="220" stroke="#64748B" stroke-width="22" stroke-linecap="square" />
        <line x1="300" y1="180" x2="420" y2="180" stroke="#64748B" stroke-width="20" stroke-linecap="round" />
        <!-- Leak Joint -->
        <circle cx="300" cy="180" r="16" fill="#0284C7" />
        <!-- Water Spray -->
        <path d="M 300 180 Q 240 210 220 270" stroke="#38BDF8" stroke-width="4" fill="none" stroke-dasharray="5,5" />
        <path d="M 300 180 Q 270 230 260 290" stroke="#38BDF8" stroke-width="6" fill="none" stroke-dasharray="6,4" />
        <!-- Puddle -->
        <ellipse cx="280" cy="330" rx="110" ry="25" fill="#0284C7" opacity="0.6" />
        <text x="320" y="240" fill="#EF4444" font-family="Arial" font-size="12" font-weight="bold">BURST VALVE LEAK</text>
        

        <!-- Bottom bar info -->
        <rect x="0" y="365" width="600" height="35" fill="#0B132B" opacity="0.9" />
        <text x="25" y="388" fill="#F8FAFC" font-family="Arial, sans-serif" font-weight="bold" font-size="13">Block C / 2nd Fl Washroom  -  Water Pipe</text>
        <text x="400" y="388" fill="#38BDF8" font-family="Arial, sans-serif" font-size="11">DEFECT: High-Pressure Joint Leak</text>
    </svg>